<svg width="202" height="202" viewBox="0 0 202 202" fill="none" xmlns="http://www.w3.org/2000/svg">
<path d="M101 22.0938C122.789 22.0938 142.516 30.9257 156.795 45.2052C171.074 59.4846 179.906 79.2111 179.906 101C179.906 122.789 171.074 142.516 156.795 156.795C142.516 171.075 122.789 179.907 101 179.907C79.211 179.907 59.4843 171.075 45.205 156.795C30.9255 142.516 22.0935 122.789 22.0935 101C22.0935 79.2112 30.9255 59.4846 45.205 45.2052C59.4843 30.9257 79.2109 22.0938 101 22.0938ZM152.332 49.6683C139.195 36.5316 121.046 28.4063 101 28.4063C80.9534 28.4063 62.8048 36.5316 49.6682 49.6683C36.5315 62.8049 28.4062 80.9536 28.4062 101C28.4062 121.047 36.5314 139.195 49.6682 152.332C62.8048 165.469 80.9534 173.594 101 173.594C121.046 173.594 139.195 165.469 152.332 152.332C165.468 139.195 173.594 121.047 173.594 101C173.594 80.9536 165.468 62.8049 152.332 49.6683Z" fill="#F2994A"/>
<path fill-rule="evenodd" clip-rule="evenodd" d="M73.0678 65.772C76.5542 65.772 79.3803 68.5982 79.3803 72.0845C79.3803 75.5709 76.5541 78.3971 73.0678 78.3971C69.5814 78.3971 66.7552 75.5709 66.7552 72.0845C66.7552 68.5982 69.5814 65.772 73.0678 65.772Z" fill="#F2994A"/>
<path fill-rule="evenodd" clip-rule="evenodd" d="M128.932 65.772C132.418 65.772 135.244 68.5982 135.244 72.0845C135.244 75.5709 132.418 78.3971 128.932 78.3971C125.445 78.3971 122.619 75.5709 122.619 72.0845C122.619 68.5982 125.445 65.772 128.932 65.772Z" fill="#F2994A"/>
<path d="M130.513 136.229C130.513 128.384 127.333 121.282 122.193 116.142C117.053 111.002 109.951 107.822 102.107 107.822C94.262 107.822 87.1604 111.002 82.0201 116.142C76.8797 121.282 73.7003 128.384 73.7003 136.229H67.3877C67.3877 126.642 71.2739 117.962 77.5569 111.679C83.8399 105.396 92.5196 101.51 102.107 101.51C111.694 101.51 120.373 105.396 126.656 111.679C132.939 117.962 136.826 126.642 136.826 136.229H130.513H130.513Z" fill="#F2994A"/>
</svg>
