<svg width="202" height="202" viewBox="0 0 202 202" fill="none" xmlns="http://www.w3.org/2000/svg">
<path d="M101 22.0938C122.789 22.0938 142.516 30.9257 156.795 45.2052C171.074 59.4846 179.906 79.2111 179.906 101C179.906 122.789 171.074 142.516 156.795 156.795C142.516 171.075 122.789 179.907 101 179.907C79.211 179.907 59.4843 171.075 45.205 156.795C30.9255 142.516 22.0935 122.789 22.0935 101C22.0935 79.2112 30.9255 59.4846 45.205 45.2052C59.4843 30.9257 79.2109 22.0938 101 22.0938ZM152.332 49.6683C139.195 36.5316 121.046 28.4063 101 28.4063C80.9534 28.4063 62.8048 36.5316 49.6682 49.6683C36.5315 62.8049 28.4062 80.9536 28.4062 101C28.4062 121.047 36.5314 139.195 49.6682 152.332C62.8048 165.469 80.9534 173.594 101 173.594C121.046 173.594 139.195 165.469 152.332 152.332C165.468 139.195 173.594 121.047 173.594 101C173.594 80.9536 165.468 62.8049 152.332 49.6683Z" fill="#6FCF97"/>
<path d="M78.9488 85.9701C82.4351 85.9701 85.2613 83.1438 85.2613 79.6575C85.2613 76.1712 82.4351 73.345 78.9488 73.345C75.4625 73.345 72.6362 76.1712 72.6362 79.6575C72.6362 83.1438 75.4625 85.9701 78.9488 85.9701Z" fill="#6FCF97"/>
<path d="M123.051 85.9701C126.538 85.9701 129.364 83.1438 129.364 79.6575C129.364 76.1712 126.538 73.345 123.051 73.345C119.565 73.345 116.739 76.1712 116.739 79.6575C116.739 83.1438 119.565 85.9701 123.051 85.9701Z" fill="#6FCF97"/>
<path d="M141.188 125.124C137.037 132.313 131.137 138.116 124.207 142.117H124.195C117.245 146.129 109.272 148.344 100.999 148.344C92.7266 148.344 84.7537 146.129 77.8039 142.117H77.7916C70.8622 138.116 64.9617 132.313 60.811 125.124L66.2605 121.992C69.8372 128.187 74.9414 133.199 80.9479 136.667L80.9448 136.672C86.9291 140.125 93.8214 142.031 100.999 142.031C108.178 142.031 115.07 140.125 121.054 136.672L121.051 136.667C127.058 133.199 132.162 128.187 135.738 121.992L141.188 125.124H141.188Z" fill="#6FCF97"/>
</svg>
