<svg width="200" height="200" viewBox="0 0 200 200" fill="none" xmlns="http://www.w3.org/2000/svg">
<path d="M100 21.875C121.573 21.875 141.105 30.6195 155.243 44.7576C169.381 58.8956 178.125 78.4269 178.125 100C178.125 121.573 169.381 141.105 155.243 155.243C141.105 169.381 121.573 178.125 100 178.125C78.4267 178.125 58.8954 169.381 44.7574 155.243C30.6193 141.105 21.8748 121.574 21.8748 100C21.8748 78.4269 30.6193 58.8956 44.7574 44.7576C58.8954 30.6195 78.4266 21.875 100 21.875ZM150.823 49.1766C137.817 36.1699 119.848 28.1251 100 28.1251C80.1519 28.1251 62.183 36.1699 49.1764 49.1766C36.1698 62.1831 28.125 80.1521 28.125 100C28.125 119.848 36.1697 137.817 49.1764 150.824C62.183 163.83 80.1519 171.875 100 171.875C119.848 171.875 137.817 163.83 150.823 150.824C163.83 137.817 171.875 119.848 171.875 100C171.875 80.1521 163.83 62.1831 150.823 49.1766Z" fill="#219653"/>
<path d="M71.2491 81.2498C74.7009 81.2498 77.4991 78.4516 77.4991 74.9998C77.4991 71.548 74.7009 68.7498 71.2491 68.7498C67.7973 68.7498 64.999 71.548 64.999 74.9998C64.999 78.4516 67.7973 81.2498 71.2491 81.2498Z" fill="#219653"/>
<path d="M126.561 81.2498C130.012 81.2498 132.811 78.4516 132.811 74.9998C132.811 71.548 130.012 68.7498 126.561 68.7498C123.109 68.7498 120.311 71.548 120.311 74.9998C120.311 78.4516 123.109 81.2498 126.561 81.2498Z" fill="#219653"/>
<path d="M99.9999 106.066L142.831 106.066L145.956 106.066V109.179V109.179C145.956 121.869 140.812 133.358 132.495 141.675C124.179 149.992 112.69 155.135 99.9999 155.135C87.3098 155.135 75.8209 149.992 67.5042 141.675C59.1876 133.358 54.0437 121.869 54.0437 109.179V106.054H57.1688H99.9998V106.066H99.9999ZM139.585 112.292L99.9999 112.292V112.304H60.4155C61.1721 122.023 65.4273 130.76 71.9233 137.256C79.1084 144.441 89.035 148.885 99.9999 148.885C110.965 148.885 120.891 144.441 128.076 137.256C134.575 130.757 138.831 122.016 139.585 112.292L139.585 112.292Z" fill="#219653"/>
</svg>
